# xmcd
#
# Track frame offsets:
#   150
#   14378
#   28375
#   41761
#   56558
#   69493
#   87563
#   104047
#   118691
#   132963
#   144596
#   158599
#   171401
#   189335
#   204856
#   219578
#
# Disc length: 3110 seconds
#
# Revision: 0
# Processed by: cddbd v1.5.2PL0 Copyright (c) Steve Scherf et al.
# Submitted via: uFREEDB ActiveX Control 1.5
#
DISCID=ed0c2410
DTITLE=11 - 011
DYEAR=1900
DGENRE=Alternative
TTITLE0=111
TTITLE1=112
TTITLE2=113
TTITLE3=114
TTITLE4=115
TTITLE5=116
TTITLE6=117
TTITLE7=118
TTITLE8=119
TTITLE9=1110
TTITLE10=1111
TTITLE11=1112
TTITLE12=1113
TTITLE13=1114
TTITLE14=1115
TTITLE15=1116
EXTD=
EXTT0=
EXTT1=
EXTT2=
EXTT3=
EXTT4=
EXTT5=
EXTT6=
EXTT7=
EXTT8=
EXTT9=
EXTT10=
EXTT11=
EXTT12=
EXTT13=
EXTT14=
EXTT15=
PLAYORDER=
